<svg width="21" height="21" viewBox="0 0 21 21" fill="none" xmlns="http://www.w3.org/2000/svg">
<path d="M18.2678 5.87708C18.7239 5.42105 18.9802 4.8025 18.9803 4.1575C18.9804 3.5125 18.7243 2.89389 18.2682 2.43774C17.8122 1.9816 17.1937 1.7253 16.5487 1.72522C15.9037 1.72514 15.285 1.98129 14.8289 2.43731L3.31471 13.9541C3.11439 14.1538 2.96625 14.3997 2.88333 14.6702L1.74365 18.4248C1.72135 18.4995 1.71967 18.5787 1.73877 18.6542C1.75788 18.7297 1.79707 18.7986 1.85218 18.8536C1.90729 18.9086 1.97626 18.9477 2.05178 18.9667C2.12731 18.9857 2.20656 18.9839 2.28114 18.9615L6.03667 17.8226C6.30685 17.7405 6.55274 17.5932 6.75274 17.3939L18.2678 5.87708Z" stroke="#4B5563" stroke-width="1.29412" stroke-linecap="round" stroke-linejoin="round"/>
<path d="M12.9424 4.31372L16.3934 7.7647" stroke="#4B5563" stroke-width="1.29412" stroke-linecap="round" stroke-linejoin="round"/>
</svg>
